<svg id="a6d1fa5a-3904-4030-bfa9-9c339581a86a" data-name="Layer 1" xmlns="http://www.w3.org/2000/svg" viewBox="0 0 46 46"><title>icon</title><path d="M22.24,20.53a1.53,1.53,0,0,1,3.05,0v2.34a2.33,2.33,0,0,1-.69,1.58,2.32,2.32,0,0,1-4-1.63V20.35H19.78a0.93,0.93,0,0,1,.27-0.65,0.94,0.94,0,0,1,1.31,0,0.94,0.94,0,0,1,.28.65v2.42a1.33,1.33,0,0,0,.39.94,1.31,1.31,0,0,0,.93.39,1.36,1.36,0,0,0,.94-0.39,1.33,1.33,0,0,0,.38-0.88V20.5h0a0.54,0.54,0,0,0-.16-0.34A0.52,0.52,0,0,0,23.76,20a0.56,0.56,0,0,0-.38.15h0a0.52,0.52,0,0,0-.15.37,0.56,0.56,0,0,0,.15.38,0.53,0.53,0,0,0,.38.16v1a1.49,1.49,0,0,1-1.07-.45,1.51,1.51,0,0,1-.45-1.08m5.49-4.34,2.34-2.33,0.71,0.7-2.34,2.33Zm-12-2.33L18,16.19l-0.71.7L15,14.56Zm6.69-2.24h1v2.8h-1v-2.8Zm7.84,9.61h3.31v1H30.23v-1Zm-18,0h3.31v1H12.23v-1ZM25.5,26.81v1.94H20.27V26.81a5.71,5.71,0,1,1,8.33-5.07,5.7,5.7,0,0,1-3.1,5.07m-4.23-.62v1.57H24.5V26.15a4.58,4.58,0,0,0,2.34-1.84,4.72,4.72,0,0,0-.62-5.91,4.72,4.72,0,0,0-7.3,5.89,4.92,4.92,0,0,0,2.35,1.9" style="fill:#fbb615"/><path d="M21.37,29.69h3.52v0.5c0,4.82-4,5.23-4,0v-0.5h0.5Zm2.52,1h-2c0,3,2,2.83,2,0" style="fill:#fbb615"/></svg>